<?xml version="1.0" encoding="UTF-8" standalone="no"?>
<!-- Created with Inkscape (http://www.inkscape.org/) -->

<svg
   xmlns:dc="http://purl.org/dc/elements/1.1/"
   xmlns:cc="http://creativecommons.org/ns#"
   xmlns:rdf="http://www.w3.org/1999/02/22-rdf-syntax-ns#"
   xmlns:svg="http://www.w3.org/2000/svg"
   xmlns="http://www.w3.org/2000/svg"
   xmlns:xlink="http://www.w3.org/1999/xlink"
   xmlns:sodipodi="http://sodipodi.sourceforge.net/DTD/sodipodi-0.dtd"
   xmlns:inkscape="http://www.inkscape.org/namespaces/inkscape"
   id="svg2"
   version="1.1"
   inkscape:version="0.47 r22583"
   width="196"
   height="196"
   sodipodi:docname="trophies.svg"
   inkscape:export-filename="/home/nevon/Desktop/glasses.png"
   inkscape:export-xdpi="90"
   inkscape:export-ydpi="90">
  <metadata
     id="metadata8">
    <rdf:RDF>
      <cc:Work
         rdf:about="">
        <dc:format>image/svg+xml</dc:format>
        <dc:type
           rdf:resource="http://purl.org/dc/dcmitype/StillImage" />
        <dc:title></dc:title>
      </cc:Work>
    </rdf:RDF>
  </metadata>
  <defs
     id="defs6">
    <linearGradient
       id="linearGradient4590">
      <stop
         style="stop-color:#3d3d3d;stop-opacity:1;"
         offset="0"
         id="stop4592" />
      <stop
         style="stop-color:#3d3d3d;stop-opacity:0;"
         offset="1"
         id="stop4594" />
    </linearGradient>
    <linearGradient
       id="linearGradient3732">
      <stop
         style="stop-color:#cecece;stop-opacity:1;"
         offset="0"
         id="stop3734" />
      <stop
         style="stop-color:#cecece;stop-opacity:0;"
         offset="1"
         id="stop3736" />
    </linearGradient>
    <linearGradient
       id="linearGradient3635">
      <stop
         style="stop-color:#ababab;stop-opacity:1;"
         offset="0"
         id="stop3637" />
      <stop
         style="stop-color:#dcdcdc;stop-opacity:1;"
         offset="1"
         id="stop3639" />
    </linearGradient>
    <linearGradient
       id="linearGradient3627">
      <stop
         style="stop-color:#9c9c9c;stop-opacity:1;"
         offset="0"
         id="stop3629" />
      <stop
         style="stop-color:#ededed;stop-opacity:1;"
         offset="1"
         id="stop3631" />
    </linearGradient>
    <linearGradient
       id="linearGradient3617">
      <stop
         style="stop-color:#742651;stop-opacity:1;"
         offset="0"
         id="stop3619" />
      <stop
         style="stop-color:#4e1f41;stop-opacity:1;"
         offset="1"
         id="stop3621" />
    </linearGradient>
    <inkscape:perspective
       sodipodi:type="inkscape:persp3d"
       inkscape:vp_x="0 : 0.5 : 1"
       inkscape:vp_y="0 : 1000 : 0"
       inkscape:vp_z="1 : 0.5 : 1"
       inkscape:persp3d-origin="0.5 : 0.33333333 : 1"
       id="perspective10" />
    <inkscape:perspective
       id="perspective2826"
       inkscape:persp3d-origin="0.5 : 0.33333333 : 1"
       inkscape:vp_z="1 : 0.5 : 1"
       inkscape:vp_y="0 : 1000 : 0"
       inkscape:vp_x="0 : 0.5 : 1"
       sodipodi:type="inkscape:persp3d" />
    <linearGradient
       inkscape:collect="always"
       xlink:href="#linearGradient3627"
       id="linearGradient3672"
       gradientUnits="userSpaceOnUse"
       gradientTransform="matrix(1.5258178,0,0,1.5258178,-1153.4131,5.8523057)"
       x1="571.41974"
       y1="-5.3400002"
       x2="545"
       y2="-48.169998" />
    <linearGradient
       inkscape:collect="always"
       xlink:href="#linearGradient3627"
       id="linearGradient3931"
       x1="128.37964"
       y1="174.55789"
       x2="68.31778"
       y2="35.25"
       gradientUnits="userSpaceOnUse" />
    <linearGradient
       inkscape:collect="always"
       xlink:href="#linearGradient3627"
       id="linearGradient3975"
       gradientUnits="userSpaceOnUse"
       x1="128.37964"
       y1="174.55789"
       x2="68.31778"
       y2="35.25" />
    <linearGradient
       inkscape:collect="always"
       xlink:href="#linearGradient3627"
       id="linearGradient3977"
       gradientUnits="userSpaceOnUse"
       x1="128.37964"
       y1="174.55789"
       x2="68.31778"
       y2="35.25" />
    <linearGradient
       inkscape:collect="always"
       xlink:href="#linearGradient3627"
       id="linearGradient3979"
       gradientUnits="userSpaceOnUse"
       x1="128.37964"
       y1="174.55789"
       x2="68.31778"
       y2="35.25" />
    <linearGradient
       inkscape:collect="always"
       xlink:href="#linearGradient3627"
       id="linearGradient3981"
       gradientUnits="userSpaceOnUse"
       x1="128.37964"
       y1="174.55789"
       x2="68.31778"
       y2="35.25" />
    <linearGradient
       inkscape:collect="always"
       xlink:href="#linearGradient3627"
       id="linearGradient3983"
       gradientUnits="userSpaceOnUse"
       x1="128.37964"
       y1="174.55789"
       x2="68.31778"
       y2="35.25" />
    <linearGradient
       inkscape:collect="always"
       xlink:href="#linearGradient3627"
       id="linearGradient3985"
       gradientUnits="userSpaceOnUse"
       x1="128.37964"
       y1="174.55789"
       x2="68.31778"
       y2="35.25" />
    <linearGradient
       inkscape:collect="always"
       xlink:href="#linearGradient3627"
       id="linearGradient3987"
       gradientUnits="userSpaceOnUse"
       x1="128.37964"
       y1="174.55789"
       x2="68.31778"
       y2="35.25" />
    <linearGradient
       inkscape:collect="always"
       xlink:href="#linearGradient3627"
       id="linearGradient3989"
       gradientUnits="userSpaceOnUse"
       x1="128.37964"
       y1="174.55789"
       x2="68.31778"
       y2="35.25" />
    <linearGradient
       inkscape:collect="always"
       xlink:href="#linearGradient3627"
       id="linearGradient3991"
       gradientUnits="userSpaceOnUse"
       x1="128.37964"
       y1="174.55789"
       x2="68.31778"
       y2="35.25" />
    <linearGradient
       inkscape:collect="always"
       xlink:href="#linearGradient3627"
       id="linearGradient3993"
       gradientUnits="userSpaceOnUse"
       x1="128.37964"
       y1="174.55789"
       x2="68.31778"
       y2="35.25" />
    <linearGradient
       inkscape:collect="always"
       xlink:href="#linearGradient3627"
       id="linearGradient3995"
       gradientUnits="userSpaceOnUse"
       x1="128.37964"
       y1="174.55789"
       x2="68.31778"
       y2="35.25" />
    <linearGradient
       inkscape:collect="always"
       xlink:href="#linearGradient3627"
       id="linearGradient3997"
       gradientUnits="userSpaceOnUse"
       x1="128.37964"
       y1="174.55789"
       x2="68.31778"
       y2="35.25" />
    <linearGradient
       inkscape:collect="always"
       xlink:href="#linearGradient3627"
       id="linearGradient3999"
       gradientUnits="userSpaceOnUse"
       x1="128.37964"
       y1="174.55789"
       x2="68.31778"
       y2="35.25" />
    <linearGradient
       inkscape:collect="always"
       xlink:href="#linearGradient3627"
       id="linearGradient4001"
       gradientUnits="userSpaceOnUse"
       x1="128.37964"
       y1="174.55789"
       x2="68.31778"
       y2="35.25" />
    <linearGradient
       inkscape:collect="always"
       xlink:href="#linearGradient3627"
       id="linearGradient4003"
       gradientUnits="userSpaceOnUse"
       x1="128.37964"
       y1="174.55789"
       x2="68.31778"
       y2="35.25" />
    <linearGradient
       inkscape:collect="always"
       xlink:href="#linearGradient3627"
       id="linearGradient4005"
       gradientUnits="userSpaceOnUse"
       x1="128.37964"
       y1="174.55789"
       x2="68.31778"
       y2="35.25" />
    <linearGradient
       inkscape:collect="always"
       xlink:href="#linearGradient3627"
       id="linearGradient4007"
       gradientUnits="userSpaceOnUse"
       x1="128.37964"
       y1="174.55789"
       x2="68.31778"
       y2="35.25" />
    <linearGradient
       inkscape:collect="always"
       xlink:href="#linearGradient3627"
       id="linearGradient4009"
       gradientUnits="userSpaceOnUse"
       x1="128.37964"
       y1="174.55789"
       x2="68.31778"
       y2="35.25" />
    <linearGradient
       inkscape:collect="always"
       xlink:href="#linearGradient3627"
       id="linearGradient4011"
       gradientUnits="userSpaceOnUse"
       x1="128.37964"
       y1="174.55789"
       x2="68.31778"
       y2="35.25" />
    <linearGradient
       inkscape:collect="always"
       xlink:href="#linearGradient3627"
       id="linearGradient4013"
       gradientUnits="userSpaceOnUse"
       x1="128.37964"
       y1="174.55789"
       x2="68.31778"
       y2="35.25" />
    <linearGradient
       inkscape:collect="always"
       xlink:href="#linearGradient3627"
       id="linearGradient4015"
       gradientUnits="userSpaceOnUse"
       x1="128.37964"
       y1="174.55789"
       x2="68.31778"
       y2="35.25" />
    <linearGradient
       inkscape:collect="always"
       xlink:href="#linearGradient3627"
       id="linearGradient4095"
       x1="111"
       y1="168.85727"
       x2="60"
       y2="27.142735"
       gradientUnits="userSpaceOnUse"
       gradientTransform="translate(-378.77965,-392.12193)" />
    <linearGradient
       inkscape:collect="always"
       xlink:href="#linearGradient3627"
       id="linearGradient4118"
       gradientUnits="userSpaceOnUse"
       x1="128.37964"
       y1="174.55789"
       x2="68.31778"
       y2="35.25" />
    <linearGradient
       inkscape:collect="always"
       xlink:href="#linearGradient3627"
       id="linearGradient4120"
       gradientUnits="userSpaceOnUse"
       x1="128.37964"
       y1="174.55789"
       x2="68.31778"
       y2="35.25" />
    <linearGradient
       inkscape:collect="always"
       xlink:href="#linearGradient3627"
       id="linearGradient4122"
       gradientUnits="userSpaceOnUse"
       x1="128.37964"
       y1="174.55789"
       x2="68.31778"
       y2="35.25" />
    <linearGradient
       inkscape:collect="always"
       xlink:href="#linearGradient3627"
       id="linearGradient3692"
       x1="56.726055"
       y1="175.34409"
       x2="123.63694"
       y2="15.682052"
       gradientUnits="userSpaceOnUse" />
    <linearGradient
       inkscape:collect="always"
       xlink:href="#linearGradient3627"
       id="linearGradient3844"
       gradientUnits="userSpaceOnUse"
       x1="56.726055"
       y1="175.34409"
       x2="123.63694"
       y2="15.682052" />
    <linearGradient
       inkscape:collect="always"
       xlink:href="#linearGradient3627"
       id="linearGradient3846"
       gradientUnits="userSpaceOnUse"
       x1="56.726055"
       y1="175.34409"
       x2="123.63694"
       y2="15.682052" />
    <linearGradient
       inkscape:collect="always"
       xlink:href="#linearGradient3627"
       id="linearGradient3848"
       gradientUnits="userSpaceOnUse"
       x1="56.726055"
       y1="175.34409"
       x2="123.63694"
       y2="15.682052" />
    <linearGradient
       inkscape:collect="always"
       xlink:href="#linearGradient3627"
       id="linearGradient3850"
       gradientUnits="userSpaceOnUse"
       x1="56.726055"
       y1="175.34409"
       x2="123.63694"
       y2="15.682052" />
    <linearGradient
       inkscape:collect="always"
       xlink:href="#linearGradient3627"
       id="linearGradient3852"
       gradientUnits="userSpaceOnUse"
       x1="56.726055"
       y1="175.34409"
       x2="123.63694"
       y2="15.682052" />
    <linearGradient
       inkscape:collect="always"
       xlink:href="#linearGradient3627"
       id="linearGradient3881"
       x1="122.66652"
       y1="130"
       x2="98"
       y2="59"
       gradientUnits="userSpaceOnUse" />
    <linearGradient
       inkscape:collect="always"
       xlink:href="#linearGradient3627"
       id="linearGradient3889"
       gradientUnits="userSpaceOnUse"
       x1="122.66652"
       y1="130"
       x2="98"
       y2="59" />
    <linearGradient
       inkscape:collect="always"
       xlink:href="#linearGradient3627"
       id="linearGradient3891"
       gradientUnits="userSpaceOnUse"
       x1="122.66652"
       y1="130"
       x2="98"
       y2="59" />
    <linearGradient
       inkscape:collect="always"
       xlink:href="#linearGradient3627"
       id="linearGradient4093"
       x1="62.215622"
       y1="45.43903"
       x2="69.308464"
       y2="127.21875"
       gradientUnits="userSpaceOnUse" />
    <linearGradient
       inkscape:collect="always"
       xlink:href="#linearGradient3627"
       id="linearGradient4097"
       gradientUnits="userSpaceOnUse"
       x1="66.375"
       y1="45.43903"
       x2="106.96027"
       y2="140.32889" />
    <linearGradient
       inkscape:collect="always"
       xlink:href="#linearGradient3627"
       id="linearGradient4099"
       gradientUnits="userSpaceOnUse"
       x1="66.375"
       y1="45.43903"
       x2="106.96027"
       y2="140.32889" />
    <linearGradient
       inkscape:collect="always"
       xlink:href="#linearGradient3627"
       id="linearGradient4101"
       gradientUnits="userSpaceOnUse"
       x1="66.375"
       y1="45.43903"
       x2="106.96027"
       y2="140.32889" />
    <linearGradient
       inkscape:collect="always"
       xlink:href="#linearGradient3627"
       id="linearGradient4103"
       gradientUnits="userSpaceOnUse"
       x1="66.375"
       y1="45.43903"
       x2="106.96027"
       y2="140.32889" />
    <linearGradient
       inkscape:collect="always"
       xlink:href="#linearGradient3627"
       id="linearGradient4105"
       gradientUnits="userSpaceOnUse"
       x1="66.375"
       y1="45.43903"
       x2="106.96027"
       y2="140.32889" />
    <linearGradient
       inkscape:collect="always"
       xlink:href="#linearGradient3627"
       id="linearGradient4107"
       gradientUnits="userSpaceOnUse"
       x1="66.375"
       y1="45.43903"
       x2="106.96027"
       y2="140.32889" />
    <linearGradient
       inkscape:collect="always"
       xlink:href="#linearGradient3627"
       id="linearGradient4109"
       gradientUnits="userSpaceOnUse"
       x1="66.375"
       y1="45.43903"
       x2="106.96027"
       y2="140.32889" />
    <linearGradient
       inkscape:collect="always"
       xlink:href="#linearGradient3627"
       id="linearGradient4111"
       gradientUnits="userSpaceOnUse"
       x1="66.375"
       y1="45.43903"
       x2="106.96027"
       y2="140.32889" />
    <linearGradient
       inkscape:collect="always"
       xlink:href="#linearGradient3627"
       id="linearGradient4275"
       gradientUnits="userSpaceOnUse"
       x1="128.37964"
       y1="174.55789"
       x2="68.31778"
       y2="35.25" />
    <linearGradient
       inkscape:collect="always"
       xlink:href="#linearGradient3627"
       id="linearGradient4277"
       gradientUnits="userSpaceOnUse"
       x1="128.37964"
       y1="174.55789"
       x2="68.31778"
       y2="35.25" />
    <linearGradient
       inkscape:collect="always"
       xlink:href="#linearGradient3627"
       id="linearGradient4279"
       gradientUnits="userSpaceOnUse"
       x1="128.37964"
       y1="174.55789"
       x2="68.31778"
       y2="35.25" />
    <linearGradient
       inkscape:collect="always"
       xlink:href="#linearGradient3627"
       id="linearGradient4281"
       gradientUnits="userSpaceOnUse"
       x1="56.726055"
       y1="175.34409"
       x2="123.63694"
       y2="15.682052" />
    <linearGradient
       inkscape:collect="always"
       xlink:href="#linearGradient3627"
       id="linearGradient4283"
       gradientUnits="userSpaceOnUse"
       x1="122.66652"
       y1="130"
       x2="98"
       y2="59" />
    <inkscape:perspective
       id="perspective4293"
       inkscape:persp3d-origin="0.5 : 0.33333333 : 1"
       inkscape:vp_z="1 : 0.5 : 1"
       inkscape:vp_y="0 : 1000 : 0"
       inkscape:vp_x="0 : 0.5 : 1"
       sodipodi:type="inkscape:persp3d" />
    <linearGradient
       inkscape:collect="always"
       xlink:href="#linearGradient3627"
       id="linearGradient4328"
       x1="-1.2273933"
       y1="184.39848"
       x2="198.74284"
       y2="7.5560513"
       gradientUnits="userSpaceOnUse" />
    <linearGradient
       inkscape:collect="always"
       xlink:href="#linearGradient3627"
       id="linearGradient4349"
       gradientUnits="userSpaceOnUse"
       x1="-1.2273933"
       y1="184.39848"
       x2="198.74284"
       y2="7.5560513" />
    <linearGradient
       inkscape:collect="always"
       xlink:href="#linearGradient3627"
       id="linearGradient4351"
       gradientUnits="userSpaceOnUse"
       x1="-1.2273933"
       y1="184.39848"
       x2="198.74284"
       y2="7.5560513" />
    <linearGradient
       inkscape:collect="always"
       xlink:href="#linearGradient3627"
       id="linearGradient4353"
       gradientUnits="userSpaceOnUse"
       x1="-1.2273933"
       y1="184.39848"
       x2="198.74284"
       y2="7.5560513" />
    <linearGradient
       inkscape:collect="always"
       xlink:href="#linearGradient3627"
       id="linearGradient4355"
       gradientUnits="userSpaceOnUse"
       x1="-1.2273933"
       y1="184.39848"
       x2="198.74284"
       y2="7.5560513" />
    <inkscape:perspective
       id="perspective4570"
       inkscape:persp3d-origin="0.5 : 0.33333333 : 1"
       inkscape:vp_z="1 : 0.5 : 1"
       inkscape:vp_y="0 : 1000 : 0"
       inkscape:vp_x="0 : 0.5 : 1"
       sodipodi:type="inkscape:persp3d" />
    <linearGradient
       inkscape:collect="always"
       xlink:href="#linearGradient3627"
       id="linearGradient4596"
       x1="518.77679"
       y1="167.36218"
       x2="345.82602"
       y2="-11.005509"
       gradientUnits="userSpaceOnUse" />
    <linearGradient
       inkscape:collect="always"
       xlink:href="#linearGradient3627"
       id="linearGradient4636"
       gradientUnits="userSpaceOnUse"
       x1="518.77679"
       y1="167.36218"
       x2="345.82602"
       y2="-11.005509"
       gradientTransform="translate(-219.91021,-223.44574)" />
    <linearGradient
       inkscape:collect="always"
       xlink:href="#linearGradient3627"
       id="linearGradient4640"
       gradientUnits="userSpaceOnUse"
       x1="518.77679"
       y1="167.36218"
       x2="345.82602"
       y2="-11.005509" />
    <linearGradient
       inkscape:collect="always"
       xlink:href="#linearGradient3627"
       id="linearGradient4643"
       gradientUnits="userSpaceOnUse"
       x1="518.77679"
       y1="167.36218"
       x2="345.82602"
       y2="-11.005509"
       gradientTransform="matrix(0.95758137,0,0,0.95758137,-694.73716,288.72482)" />
    <linearGradient
       inkscape:collect="always"
       xlink:href="#linearGradient3627"
       id="linearGradient4646"
       gradientUnits="userSpaceOnUse"
       gradientTransform="matrix(0.9577291,0,0,0.9577291,-694.80481,288.72213)"
       x1="518.77679"
       y1="167.36218"
       x2="345.82602"
       y2="-11.005509" />
    <inkscape:perspective
       id="perspective4852"
       inkscape:persp3d-origin="0.5 : 0.33333333 : 1"
       inkscape:vp_z="1 : 0.5 : 1"
       inkscape:vp_y="0 : 1000 : 0"
       inkscape:vp_x="0 : 0.5 : 1"
       sodipodi:type="inkscape:persp3d" />
    <linearGradient
       inkscape:collect="always"
       xlink:href="#linearGradient3627"
       id="linearGradient4872"
       x1="197.79443"
       y1="267.40625"
       x2="143.49414"
       y2="84.5"
       gradientUnits="userSpaceOnUse"
       gradientTransform="matrix(1.0497181,0,0,1.0497181,-83.536319,-86.70118)" />
  </defs>
  <sodipodi:namedview
     pagecolor="#ffffff"
     bordercolor="#666666"
     borderopacity="1"
     objecttolerance="10"
     gridtolerance="10"
     guidetolerance="10"
     inkscape:pageopacity="0"
     inkscape:pageshadow="2"
     inkscape:window-width="1440"
     inkscape:window-height="829"
     id="namedview4"
     showgrid="false"
     inkscape:zoom="0.5"
     inkscape:cx="-384.67"
     inkscape:cy="136.83301"
     inkscape:window-x="0"
     inkscape:window-y="24"
     inkscape:window-maximized="1"
     inkscape:current-layer="svg2"
     showguides="true"
     inkscape:guide-bbox="true" />
  <path
     style="fill:url(#linearGradient4872);fill-opacity:1;stroke:none"
     d="m 93.866041,2 c -12.31393,0 -22.97759,1.7349 -32.18042,4.85495 0.0809,-0.0139 0.16888,-0.05 0.26243,-0.0656 -4.63913,9.64943 -9.19709,15.86785 -6.69195,38.97078 18.74213,-5.75254 33.41153,-5.77345 43.43208,-5.77345 10.020549,0 22.640029,1.11931 36.116869,4.52691 0,-28.29203 -1.31624,-25.73412 -9.08662,-39.26601 C 116.45804,3.1306 105.88235,2.00001 93.866041,2.00001 z m 31.852389,3.24757 c 0.71686,0.16388 1.43103,0.31618 2.13224,0.49205 -0.0332,-0.0346 -0.065,-0.0637 -0.0984,-0.0984 l -2.06664,-0.45925 c 0.0139,0.0241 0.019,0.0416 0.0328,0.0656 z m 2.13224,0.49205 c 10.52,10.97536 9.18503,20.07299 9.18503,39.9549 0,0 3.14915,0.78728 4.72373,1.70579 0.78498,-26.0353 -2.73881,-28.46981 -10.6284,-40.77499 -1.07651,-0.3099 -2.1646,-0.60584 -3.28036,-0.8857 z m 3.28036,0.8857 c 0.71171,0.20488 1.40472,0.40541 2.09944,0.62327 -1.31215,-0.45925 -2.16504,-0.72168 -2.16504,-0.72168 0.0232,0.0363 0.0424,0.0623 0.0656,0.0984 z m 2.09944,0.62327 c 11.02204,12.33419 11.02204,22.1753 10.89083,40.80779 3.93644,1.96822 16.9267,9.44746 20.60071,12.99026 3.67402,3.5428 6.69196,19.15736 6.69196,22.56894 0,3.41159 -0.39365,5.24859 0.78729,5.24859 1.18093,0 2.75551,0.39365 2.75551,1.44336 2.75551,6.82317 2.49308,22.83137 0.39364,28.86725 -0.65607,4.19887 -2.09944,13.77755 -2.75551,17.58278 -0.65607,3.80523 0.13121,3.01794 1.04972,3.01794 0.9185,0 4.33008,-0.13122 6.03588,-0.26243 l -0.65608,2.6243 c 0,0 -3.93644,0.13121 -6.16709,0.26242 -2.23065,0.13122 -3.14916,0 -2.88673,-0.9185 0.26243,-0.9185 2.09944,-12.99026 3.5428,-22.43772 -1.837,-3.80523 -2.23065,-5.64224 -2.23065,-16.66428 0,-11.02204 1.44336,-11.15325 1.44336,-11.15325 0,0 -2.75551,0.52486 -3.01794,-1.04972 -0.26242,-1.57458 0.26243,-10.36597 -3.01793,-20.60072 -3.28037,-10.23475 -12.99027,-15.35212 -26.24296,-20.20707 -13.25269,-4.85495 -22.30651,-7.47924 -44.613019,-7.47924 -22.30651,0 -35.82163,3.93644 -42.90722,6.82317 -7.0856,2.88672 -18.37007,8.79138 -22.30651,13.3839 -3.93645,4.59252 -4.98616,18.50128 -5.51102,23.74987 -0.52486,5.24859 -1.18094,5.51102 -3.01794,5.37981 2.36186,5.24859 1.04972,21.91286 -0.26243,25.19323 -1.31215,3.28037 -1.31215,7.21681 -0.78729,12.4654 0.52486,5.24859 3.67401,21.12558 3.93644,22.30651 0.26243,1.18094 0.13122,0.91851 -1.837,0.8529 l -4.98617,-0.32804 C 26.320011,179.17977 58.983551,194 96.096691,194 c 37.113139,0 69.772819,-24.487 75.710919,-33.39416 5.93811,-8.90715 11.28447,-22.26344 11.28447,-73.05382 0,-39.1438 -13.10304,-68.77606 -49.86161,-80.30343 z m -115.075349,144.46745 0,-0.75448 -0.0327,0.75448 0.0327,0 z m 0,-0.75448 c -0.07,-0.22748 -0.12768,-0.46174 -0.19682,-0.68888 -0.002,1.3e-4 -0.0656,0 -0.0656,0 l 0.26242,0.68888 z m -0.19682,-0.68888 c 0.11468,-0.008 3.69989,-0.26656 5.3142,-0.52486 -3.93644,-15.48334 -4.13326,-18.63249 -4.13326,-30.96668 -2.02935,-3.51494 -1.90262,-8.79139 -1.90262,-14.30241 0,-5.51102 0.13122,-9.97232 1.83701,-14.10559 0,0 -2.55869,-0.72168 -6.10149,-0.65607 0.0844,41.91997 2.18153,51.34102 4.98616,60.55561 z m -4.98616,-60.55561 c -0.001,-0.61249 3.8e-4,-1.1777 0,-1.8042 -0.1445,1.24795 0,1.8042 0,1.8042 z m 0,-1.8042 c 0.0192,-0.16586 0.0349,-0.29966 0.0656,-0.49206 1.64018,-0.0656 6.59354,0.45925 6.59354,0.45925 0,0 2.74289,0.87677 3.34598,0.45925 0,-10.67002 3.34517,-24.30673 6.03588,-26.99743 2.6907,-2.6907 4.48021,-5.25318 16.9595,-12.62942 -0.92636,-18.52732 2.58715,-31.88987 8.69298,-39.13481 -29.9938,13.67018 -41.69349,44.13979 -41.69349,77.54793 0,0.27607 -1.6e-4,0.5139 0,0.78729 z M 54.665631,9.57765 c 0.3661,-0.16685 0.74377,-0.33022 1.11533,-0.49205 -0.3458,0.14928 -0.64377,0.25982 -1.08252,0.45925 -0.009,0.0114 -0.0232,0.0214 -0.0328,0.0327 z m 7.01999,-2.7227 c -0.40078,0.0686 -0.7544,0.11574 -2.06663,0.65607 -0.0126,0.0242 -0.0203,0.0415 -0.0328,0.0656 0.68923,-0.25603 1.39277,-0.48211 2.09943,-0.72168 z m -2.09943,0.72168 c -0.79471,0.29521 -1.59013,0.60183 -2.36187,0.9185 -6.86592,11.73704 -10.58706,21.09184 -8.82419,39.46284 2.41235,-0.83504 4.62532,-1.37775 4.62532,-1.37775 -0.46313,-23.24894 -0.82289,-24.78262 6.56074,-39.00359 z m 33.91901,44.28498 c 36.370879,0 55.950769,9.96863 65.672989,15.58175 5.56697,8.16489 8.52896,20.42258 8.52896,37.49462 0,17.07205 -1.11533,24.50436 -1.11533,24.50436 -20.78335,12.61847 -27.06306,14.08886 -45.99077,17.05792 -8.16489,-5.19585 -7.43358,-5.54383 -12.62942,-5.54383 -5.19584,0 -10.398769,3.31061 -10.398769,8.13532 0,4.82471 5.955479,6.69195 10.037929,6.69195 4.08244,0 9.62563,-1.10696 11.48129,-2.59149 11.13394,0 36.37223,-7.06052 44.90825,-11.5141 -4.45357,15.95865 -30.06045,35.26397 -68.658119,35.26397 -38.59766,0 -56.40113,-12.99092 -63.0815,-25.98052 -6.68036,-12.9896 -9.28664,-58.64017 1.47617,-82.76371 9.09272,-9.09272 28.22215,-16.33624 59.76832,-16.33624 z"
     id="path4858" />
</svg>
