<?xml version="1.0" encoding="UTF-8" standalone="no"?>
<!-- Created with Inkscape (http://www.inkscape.org/) -->

<svg
   xmlns:dc="http://purl.org/dc/elements/1.1/"
   xmlns:cc="http://creativecommons.org/ns#"
   xmlns:rdf="http://www.w3.org/1999/02/22-rdf-syntax-ns#"
   xmlns:svg="http://www.w3.org/2000/svg"
   xmlns="http://www.w3.org/2000/svg"
   xmlns:xlink="http://www.w3.org/1999/xlink"
   xmlns:sodipodi="http://sodipodi.sourceforge.net/DTD/sodipodi-0.dtd"
   xmlns:inkscape="http://www.inkscape.org/namespaces/inkscape"
   id="svg2"
   version="1.1"
   inkscape:version="0.47 r22583"
   width="196"
   height="196"
   sodipodi:docname="trophies.svg"
   inkscape:export-filename="/home/nevon/Desktop/glasses.png"
   inkscape:export-xdpi="90"
   inkscape:export-ydpi="90">
  <metadata
     id="metadata8">
    <rdf:RDF>
      <cc:Work
         rdf:about="">
        <dc:format>image/svg+xml</dc:format>
        <dc:type
           rdf:resource="http://purl.org/dc/dcmitype/StillImage" />
        <dc:title></dc:title>
      </cc:Work>
    </rdf:RDF>
  </metadata>
  <defs
     id="defs6">
    <linearGradient
       id="linearGradient4590">
      <stop
         style="stop-color:#3d3d3d;stop-opacity:1;"
         offset="0"
         id="stop4592" />
      <stop
         style="stop-color:#3d3d3d;stop-opacity:0;"
         offset="1"
         id="stop4594" />
    </linearGradient>
    <linearGradient
       id="linearGradient3732">
      <stop
         style="stop-color:#cecece;stop-opacity:1;"
         offset="0"
         id="stop3734" />
      <stop
         style="stop-color:#cecece;stop-opacity:0;"
         offset="1"
         id="stop3736" />
    </linearGradient>
    <linearGradient
       id="linearGradient3635">
      <stop
         style="stop-color:#ababab;stop-opacity:1;"
         offset="0"
         id="stop3637" />
      <stop
         style="stop-color:#dcdcdc;stop-opacity:1;"
         offset="1"
         id="stop3639" />
    </linearGradient>
    <linearGradient
       id="linearGradient3627">
      <stop
         style="stop-color:#9c9c9c;stop-opacity:1;"
         offset="0"
         id="stop3629" />
      <stop
         style="stop-color:#ededed;stop-opacity:1;"
         offset="1"
         id="stop3631" />
    </linearGradient>
    <linearGradient
       id="linearGradient3617">
      <stop
         style="stop-color:#742651;stop-opacity:1;"
         offset="0"
         id="stop3619" />
      <stop
         style="stop-color:#4e1f41;stop-opacity:1;"
         offset="1"
         id="stop3621" />
    </linearGradient>
    <inkscape:perspective
       sodipodi:type="inkscape:persp3d"
       inkscape:vp_x="0 : 0.5 : 1"
       inkscape:vp_y="0 : 1000 : 0"
       inkscape:vp_z="1 : 0.5 : 1"
       inkscape:persp3d-origin="0.5 : 0.33333333 : 1"
       id="perspective10" />
    <inkscape:perspective
       id="perspective2826"
       inkscape:persp3d-origin="0.5 : 0.33333333 : 1"
       inkscape:vp_z="1 : 0.5 : 1"
       inkscape:vp_y="0 : 1000 : 0"
       inkscape:vp_x="0 : 0.5 : 1"
       sodipodi:type="inkscape:persp3d" />
    <linearGradient
       inkscape:collect="always"
       xlink:href="#linearGradient3627"
       id="linearGradient3672"
       gradientUnits="userSpaceOnUse"
       gradientTransform="matrix(1.5258178,0,0,1.5258178,-1153.4131,5.8523057)"
       x1="571.41974"
       y1="-5.3400002"
       x2="545"
       y2="-48.169998" />
    <linearGradient
       inkscape:collect="always"
       xlink:href="#linearGradient3627"
       id="linearGradient3931"
       x1="128.37964"
       y1="174.55789"
       x2="68.31778"
       y2="35.25"
       gradientUnits="userSpaceOnUse" />
    <linearGradient
       inkscape:collect="always"
       xlink:href="#linearGradient3627"
       id="linearGradient3975"
       gradientUnits="userSpaceOnUse"
       x1="128.37964"
       y1="174.55789"
       x2="68.31778"
       y2="35.25" />
    <linearGradient
       inkscape:collect="always"
       xlink:href="#linearGradient3627"
       id="linearGradient3977"
       gradientUnits="userSpaceOnUse"
       x1="128.37964"
       y1="174.55789"
       x2="68.31778"
       y2="35.25" />
    <linearGradient
       inkscape:collect="always"
       xlink:href="#linearGradient3627"
       id="linearGradient3979"
       gradientUnits="userSpaceOnUse"
       x1="128.37964"
       y1="174.55789"
       x2="68.31778"
       y2="35.25" />
    <linearGradient
       inkscape:collect="always"
       xlink:href="#linearGradient3627"
       id="linearGradient3981"
       gradientUnits="userSpaceOnUse"
       x1="128.37964"
       y1="174.55789"
       x2="68.31778"
       y2="35.25" />
    <linearGradient
       inkscape:collect="always"
       xlink:href="#linearGradient3627"
       id="linearGradient3983"
       gradientUnits="userSpaceOnUse"
       x1="128.37964"
       y1="174.55789"
       x2="68.31778"
       y2="35.25" />
    <linearGradient
       inkscape:collect="always"
       xlink:href="#linearGradient3627"
       id="linearGradient3985"
       gradientUnits="userSpaceOnUse"
       x1="128.37964"
       y1="174.55789"
       x2="68.31778"
       y2="35.25" />
    <linearGradient
       inkscape:collect="always"
       xlink:href="#linearGradient3627"
       id="linearGradient3987"
       gradientUnits="userSpaceOnUse"
       x1="128.37964"
       y1="174.55789"
       x2="68.31778"
       y2="35.25" />
    <linearGradient
       inkscape:collect="always"
       xlink:href="#linearGradient3627"
       id="linearGradient3989"
       gradientUnits="userSpaceOnUse"
       x1="128.37964"
       y1="174.55789"
       x2="68.31778"
       y2="35.25" />
    <linearGradient
       inkscape:collect="always"
       xlink:href="#linearGradient3627"
       id="linearGradient3991"
       gradientUnits="userSpaceOnUse"
       x1="128.37964"
       y1="174.55789"
       x2="68.31778"
       y2="35.25" />
    <linearGradient
       inkscape:collect="always"
       xlink:href="#linearGradient3627"
       id="linearGradient3993"
       gradientUnits="userSpaceOnUse"
       x1="128.37964"
       y1="174.55789"
       x2="68.31778"
       y2="35.25" />
    <linearGradient
       inkscape:collect="always"
       xlink:href="#linearGradient3627"
       id="linearGradient3995"
       gradientUnits="userSpaceOnUse"
       x1="128.37964"
       y1="174.55789"
       x2="68.31778"
       y2="35.25" />
    <linearGradient
       inkscape:collect="always"
       xlink:href="#linearGradient3627"
       id="linearGradient3997"
       gradientUnits="userSpaceOnUse"
       x1="128.37964"
       y1="174.55789"
       x2="68.31778"
       y2="35.25" />
    <linearGradient
       inkscape:collect="always"
       xlink:href="#linearGradient3627"
       id="linearGradient3999"
       gradientUnits="userSpaceOnUse"
       x1="128.37964"
       y1="174.55789"
       x2="68.31778"
       y2="35.25" />
    <linearGradient
       inkscape:collect="always"
       xlink:href="#linearGradient3627"
       id="linearGradient4001"
       gradientUnits="userSpaceOnUse"
       x1="128.37964"
       y1="174.55789"
       x2="68.31778"
       y2="35.25" />
    <linearGradient
       inkscape:collect="always"
       xlink:href="#linearGradient3627"
       id="linearGradient4003"
       gradientUnits="userSpaceOnUse"
       x1="128.37964"
       y1="174.55789"
       x2="68.31778"
       y2="35.25" />
    <linearGradient
       inkscape:collect="always"
       xlink:href="#linearGradient3627"
       id="linearGradient4005"
       gradientUnits="userSpaceOnUse"
       x1="128.37964"
       y1="174.55789"
       x2="68.31778"
       y2="35.25" />
    <linearGradient
       inkscape:collect="always"
       xlink:href="#linearGradient3627"
       id="linearGradient4007"
       gradientUnits="userSpaceOnUse"
       x1="128.37964"
       y1="174.55789"
       x2="68.31778"
       y2="35.25" />
    <linearGradient
       inkscape:collect="always"
       xlink:href="#linearGradient3627"
       id="linearGradient4009"
       gradientUnits="userSpaceOnUse"
       x1="128.37964"
       y1="174.55789"
       x2="68.31778"
       y2="35.25" />
    <linearGradient
       inkscape:collect="always"
       xlink:href="#linearGradient3627"
       id="linearGradient4011"
       gradientUnits="userSpaceOnUse"
       x1="128.37964"
       y1="174.55789"
       x2="68.31778"
       y2="35.25" />
    <linearGradient
       inkscape:collect="always"
       xlink:href="#linearGradient3627"
       id="linearGradient4013"
       gradientUnits="userSpaceOnUse"
       x1="128.37964"
       y1="174.55789"
       x2="68.31778"
       y2="35.25" />
    <linearGradient
       inkscape:collect="always"
       xlink:href="#linearGradient3627"
       id="linearGradient4015"
       gradientUnits="userSpaceOnUse"
       x1="128.37964"
       y1="174.55789"
       x2="68.31778"
       y2="35.25" />
    <linearGradient
       inkscape:collect="always"
       xlink:href="#linearGradient3627"
       id="linearGradient4095"
       x1="111"
       y1="168.85727"
       x2="60"
       y2="27.142735"
       gradientUnits="userSpaceOnUse"
       gradientTransform="translate(-378.77965,-392.12193)" />
    <linearGradient
       inkscape:collect="always"
       xlink:href="#linearGradient3627"
       id="linearGradient4118"
       gradientUnits="userSpaceOnUse"
       x1="128.37964"
       y1="174.55789"
       x2="68.31778"
       y2="35.25" />
    <linearGradient
       inkscape:collect="always"
       xlink:href="#linearGradient3627"
       id="linearGradient4120"
       gradientUnits="userSpaceOnUse"
       x1="128.37964"
       y1="174.55789"
       x2="68.31778"
       y2="35.25" />
    <linearGradient
       inkscape:collect="always"
       xlink:href="#linearGradient3627"
       id="linearGradient4122"
       gradientUnits="userSpaceOnUse"
       x1="128.37964"
       y1="174.55789"
       x2="68.31778"
       y2="35.25" />
    <linearGradient
       inkscape:collect="always"
       xlink:href="#linearGradient3627"
       id="linearGradient3692"
       x1="56.726055"
       y1="175.34409"
       x2="123.63694"
       y2="15.682052"
       gradientUnits="userSpaceOnUse" />
    <linearGradient
       inkscape:collect="always"
       xlink:href="#linearGradient3627"
       id="linearGradient3844"
       gradientUnits="userSpaceOnUse"
       x1="56.726055"
       y1="175.34409"
       x2="123.63694"
       y2="15.682052" />
    <linearGradient
       inkscape:collect="always"
       xlink:href="#linearGradient3627"
       id="linearGradient3846"
       gradientUnits="userSpaceOnUse"
       x1="56.726055"
       y1="175.34409"
       x2="123.63694"
       y2="15.682052" />
    <linearGradient
       inkscape:collect="always"
       xlink:href="#linearGradient3627"
       id="linearGradient3848"
       gradientUnits="userSpaceOnUse"
       x1="56.726055"
       y1="175.34409"
       x2="123.63694"
       y2="15.682052" />
    <linearGradient
       inkscape:collect="always"
       xlink:href="#linearGradient3627"
       id="linearGradient3850"
       gradientUnits="userSpaceOnUse"
       x1="56.726055"
       y1="175.34409"
       x2="123.63694"
       y2="15.682052" />
    <linearGradient
       inkscape:collect="always"
       xlink:href="#linearGradient3627"
       id="linearGradient3852"
       gradientUnits="userSpaceOnUse"
       x1="56.726055"
       y1="175.34409"
       x2="123.63694"
       y2="15.682052" />
    <linearGradient
       inkscape:collect="always"
       xlink:href="#linearGradient3627"
       id="linearGradient3881"
       x1="122.66652"
       y1="130"
       x2="98"
       y2="59"
       gradientUnits="userSpaceOnUse" />
    <linearGradient
       inkscape:collect="always"
       xlink:href="#linearGradient3627"
       id="linearGradient3889"
       gradientUnits="userSpaceOnUse"
       x1="122.66652"
       y1="130"
       x2="98"
       y2="59" />
    <linearGradient
       inkscape:collect="always"
       xlink:href="#linearGradient3627"
       id="linearGradient3891"
       gradientUnits="userSpaceOnUse"
       x1="122.66652"
       y1="130"
       x2="98"
       y2="59" />
    <linearGradient
       inkscape:collect="always"
       xlink:href="#linearGradient3627"
       id="linearGradient4093"
       x1="62.215622"
       y1="45.43903"
       x2="69.308464"
       y2="127.21875"
       gradientUnits="userSpaceOnUse" />
    <linearGradient
       inkscape:collect="always"
       xlink:href="#linearGradient3627"
       id="linearGradient4097"
       gradientUnits="userSpaceOnUse"
       x1="66.375"
       y1="45.43903"
       x2="106.96027"
       y2="140.32889" />
    <linearGradient
       inkscape:collect="always"
       xlink:href="#linearGradient3627"
       id="linearGradient4099"
       gradientUnits="userSpaceOnUse"
       x1="66.375"
       y1="45.43903"
       x2="106.96027"
       y2="140.32889" />
    <linearGradient
       inkscape:collect="always"
       xlink:href="#linearGradient3627"
       id="linearGradient4101"
       gradientUnits="userSpaceOnUse"
       x1="66.375"
       y1="45.43903"
       x2="106.96027"
       y2="140.32889" />
    <linearGradient
       inkscape:collect="always"
       xlink:href="#linearGradient3627"
       id="linearGradient4103"
       gradientUnits="userSpaceOnUse"
       x1="66.375"
       y1="45.43903"
       x2="106.96027"
       y2="140.32889" />
    <linearGradient
       inkscape:collect="always"
       xlink:href="#linearGradient3627"
       id="linearGradient4105"
       gradientUnits="userSpaceOnUse"
       x1="66.375"
       y1="45.43903"
       x2="106.96027"
       y2="140.32889" />
    <linearGradient
       inkscape:collect="always"
       xlink:href="#linearGradient3627"
       id="linearGradient4107"
       gradientUnits="userSpaceOnUse"
       x1="66.375"
       y1="45.43903"
       x2="106.96027"
       y2="140.32889" />
    <linearGradient
       inkscape:collect="always"
       xlink:href="#linearGradient3627"
       id="linearGradient4109"
       gradientUnits="userSpaceOnUse"
       x1="66.375"
       y1="45.43903"
       x2="106.96027"
       y2="140.32889" />
    <linearGradient
       inkscape:collect="always"
       xlink:href="#linearGradient3627"
       id="linearGradient4111"
       gradientUnits="userSpaceOnUse"
       x1="66.375"
       y1="45.43903"
       x2="106.96027"
       y2="140.32889" />
    <linearGradient
       inkscape:collect="always"
       xlink:href="#linearGradient3627"
       id="linearGradient4275"
       gradientUnits="userSpaceOnUse"
       x1="128.37964"
       y1="174.55789"
       x2="68.31778"
       y2="35.25" />
    <linearGradient
       inkscape:collect="always"
       xlink:href="#linearGradient3627"
       id="linearGradient4277"
       gradientUnits="userSpaceOnUse"
       x1="128.37964"
       y1="174.55789"
       x2="68.31778"
       y2="35.25" />
    <linearGradient
       inkscape:collect="always"
       xlink:href="#linearGradient3627"
       id="linearGradient4279"
       gradientUnits="userSpaceOnUse"
       x1="128.37964"
       y1="174.55789"
       x2="68.31778"
       y2="35.25" />
    <linearGradient
       inkscape:collect="always"
       xlink:href="#linearGradient3627"
       id="linearGradient4281"
       gradientUnits="userSpaceOnUse"
       x1="56.726055"
       y1="175.34409"
       x2="123.63694"
       y2="15.682052" />
    <linearGradient
       inkscape:collect="always"
       xlink:href="#linearGradient3627"
       id="linearGradient4283"
       gradientUnits="userSpaceOnUse"
       x1="122.66652"
       y1="130"
       x2="98"
       y2="59" />
    <inkscape:perspective
       id="perspective4293"
       inkscape:persp3d-origin="0.5 : 0.33333333 : 1"
       inkscape:vp_z="1 : 0.5 : 1"
       inkscape:vp_y="0 : 1000 : 0"
       inkscape:vp_x="0 : 0.5 : 1"
       sodipodi:type="inkscape:persp3d" />
    <linearGradient
       inkscape:collect="always"
       xlink:href="#linearGradient3627"
       id="linearGradient4328"
       x1="-1.2273933"
       y1="184.39848"
       x2="198.74284"
       y2="7.5560513"
       gradientUnits="userSpaceOnUse" />
    <linearGradient
       inkscape:collect="always"
       xlink:href="#linearGradient3627"
       id="linearGradient4349"
       gradientUnits="userSpaceOnUse"
       x1="-1.2273933"
       y1="184.39848"
       x2="198.74284"
       y2="7.5560513" />
    <linearGradient
       inkscape:collect="always"
       xlink:href="#linearGradient3627"
       id="linearGradient4351"
       gradientUnits="userSpaceOnUse"
       x1="-1.2273933"
       y1="184.39848"
       x2="198.74284"
       y2="7.5560513" />
    <linearGradient
       inkscape:collect="always"
       xlink:href="#linearGradient3627"
       id="linearGradient4353"
       gradientUnits="userSpaceOnUse"
       x1="-1.2273933"
       y1="184.39848"
       x2="198.74284"
       y2="7.5560513" />
    <linearGradient
       inkscape:collect="always"
       xlink:href="#linearGradient3627"
       id="linearGradient4355"
       gradientUnits="userSpaceOnUse"
       x1="-1.2273933"
       y1="184.39848"
       x2="198.74284"
       y2="7.5560513" />
    <inkscape:perspective
       id="perspective4570"
       inkscape:persp3d-origin="0.5 : 0.33333333 : 1"
       inkscape:vp_z="1 : 0.5 : 1"
       inkscape:vp_y="0 : 1000 : 0"
       inkscape:vp_x="0 : 0.5 : 1"
       sodipodi:type="inkscape:persp3d" />
    <linearGradient
       inkscape:collect="always"
       xlink:href="#linearGradient3627"
       id="linearGradient4596"
       x1="518.77679"
       y1="167.36218"
       x2="345.82602"
       y2="-11.005509"
       gradientUnits="userSpaceOnUse" />
    <linearGradient
       inkscape:collect="always"
       xlink:href="#linearGradient3627"
       id="linearGradient4636"
       gradientUnits="userSpaceOnUse"
       x1="518.77679"
       y1="167.36218"
       x2="345.82602"
       y2="-11.005509"
       gradientTransform="translate(-219.91021,-223.44574)" />
    <linearGradient
       inkscape:collect="always"
       xlink:href="#linearGradient3627"
       id="linearGradient4640"
       gradientUnits="userSpaceOnUse"
       x1="518.77679"
       y1="167.36218"
       x2="345.82602"
       y2="-11.005509" />
    <linearGradient
       inkscape:collect="always"
       xlink:href="#linearGradient3627"
       id="linearGradient4643"
       gradientUnits="userSpaceOnUse"
       x1="518.77679"
       y1="167.36218"
       x2="345.82602"
       y2="-11.005509"
       gradientTransform="matrix(0.95758137,0,0,0.95758137,-694.73716,288.72482)" />
    <linearGradient
       inkscape:collect="always"
       xlink:href="#linearGradient3627"
       id="linearGradient4646"
       gradientUnits="userSpaceOnUse"
       gradientTransform="matrix(0.9577291,0,0,0.9577291,-316.02516,34.722132)"
       x1="518.77679"
       y1="167.36218"
       x2="345.82602"
       y2="-11.005509" />
  </defs>
  <sodipodi:namedview
     pagecolor="#ffffff"
     bordercolor="#666666"
     borderopacity="1"
     objecttolerance="10"
     gridtolerance="10"
     guidetolerance="10"
     inkscape:pageopacity="0"
     inkscape:pageshadow="2"
     inkscape:window-width="1440"
     inkscape:window-height="829"
     id="namedview4"
     showgrid="false"
     inkscape:zoom="0.35355339"
     inkscape:cx="-434.98663"
     inkscape:cy="149.51476"
     inkscape:window-x="0"
     inkscape:window-y="24"
     inkscape:window-maximized="1"
     inkscape:current-layer="svg2"
     showguides="true"
     inkscape:guide-bbox="true" />
  <path
     style="fill:url(#linearGradient4646);fill-opacity:1;stroke:none"
     d="m 94.365548,1.000002 c -16.42251,1.18513 -24.89156,9.80737 -25.23018,27.415 -0.3386,17.60763 1.02786,30.147336 1.19716,35.226466 0.16931,5.07912 -7.10609,12.67553 -8.79913,15.89232 -1.69305,3.21677 -8.30503,10.32493 -11.01389,15.74267 -3.38609,11.174072 -6.76924,16.770832 -9.81672,22.865782 -3.04747,6.09495 -4.05831,10.6653 -2.87319,16.76026 -1.01582,0.50791 -1.87878,2.54427 -3.74113,8.46992 -1.86235,5.92565 -5.42068,5.07854 -7.45233,5.41715 -2.03164,0.33861 -6.2493,-0.51642 -8.61956,0.83801 -2.37025,1.35443 -2.54132,5.58764 -1.01758,11.8519 1.52373,6.26426 -0.18134,8.65478 -1.19717,11.70225 -1.01582,3.04748 -0.8251,6.24755 0.86795,7.60198 1.69303,1.35444 25.56468,7.10433 28.61215,7.78155 3.04748,0.67722 16.57658,6.43474 19.96267,6.43474 3.38608,0 5.76017,-1.84974 7.96112,-4.21999 2.20096,-2.37027 6.77982,-5.74638 15.92225,-5.74638 l 27.085772,0 c 5.92566,0 5.2505,0.31485 6.94354,3.53163 3.38608,5.41774 7.09613,6.43474 14.54551,6.43474 7.44939,0 15.59245,-10.14184 21.01018,-13.52792 5.41774,-3.38608 17.59418,-8.47697 20.98026,-12.54027 3.38609,-4.0633 -1.348,-7.76805 -7.78155,-11.49275 -6.43357,-3.72469 -7.12311,-10.17176 -7.12311,-13.55785 0,-3.38608 -0.31573,-7.79856 -4.04042,-6.10552 0,0 0.99118,0.01 3.02283,-5.74638 0,-18.62345 -7.09907,-36.565672 -21.99784,-55.189142 -14.89876,-18.62346 -14.21629,-30.479506 -14.21629,-43.008016 0,-12.52851 -3.73238,-32.83215 -33.191302,-32.83215 z m 9.218142,27.47485 c 0.69905,-0.0145 1.47918,0.0351 2.30454,0.11972 6.60286,0.67722 8.13131,9.13276 8.46991,11.67232 0.33861,2.53957 -1.03137,8.119276 -3.23233,7.272756 -2.20095,-0.846516 -2.19333,-0.14907 -1.34681,-5.566796 0.84652,-5.41773 -2.37906,-6.43563 -5.08793,-6.94354 -2.70887,-0.50791 -5.567692,0.66813 -6.075602,6.25517 -0.50791,5.587036 6.263982,7.444706 11.343112,8.799136 5.07912,1.35444 4.04893,4.57503 3.2024,7.96112 -0.84651,3.38608 -0.66694,6.93591 0.17958,8.29034 0.84651,1.35444 7.43355,9.30823 8.11077,15.23388 0.67722,5.92564 2.19363,6.4327 7.27275,16.76026 5.07913,10.327562 3.90104,16.602422 4.07035,23.374582 0.16931,6.77216 0.7634,6.00931 4.24992,6.94353 7.61869,0.1693 7.4403,-9.32555 6.25517,-19.4838 -1.18512,-10.158252 -9.65007,-20.126982 -11.3431,-22.835852 -1.69305,-2.70886 -1.17486,-2.73117 0.17957,-1.37674 4.31726,3.80935 10.07172,10.07128 13.28849,21.668622 3.21678,11.59734 -1.11764,18.14389 -1.28695,19.24437 -0.1693,1.10048 -0.16241,0.99881 1.10738,1.67603 1.26977,0.67722 3.98745,1.6838 5.08793,3.29219 1.10048,1.60839 -1.45728,-0.23093 -4.75871,-1.07744 -3.30143,-0.84653 -9.72621,-1.01656 -12.18112,2.45418 -0.76187,1.18513 -0.9278,3.53162 -0.9278,3.53162 -5.11808,0.0692 -5.95588,1.10738 -6.97346,2.54397 -1.01759,1.43659 -1.37674,7.36254 -0.95773,17.29898 0.419,9.93644 -1.31688,18.91515 -1.73589,22.56649 -0.419,3.65135 -0.65844,3.77106 -1.07744,3.77106 -0.41901,0 -2.09504,0.35915 -2.09504,-3.17248 0,-3.53162 2.69362,-12.45047 2.69362,-13.94693 0,-1.49645 -0.23943,-2.57389 -0.65844,-2.9929 -0.41901,-0.41901 -1.67603,-2.15489 -6.10552,4.30978 -4.4295,6.46467 -15.44339,7.54212 -21.010192,7.54212 -5.5668,0 -6.64424,-0.47887 -8.67942,-0.89787 -2.03517,-0.41901 -4.90836,-3.95063 -6.46467,-3.95063 -1.55631,0 -1.19716,1.37673 -0.23943,2.21474 0.95773,0.83802 3.05276,5.20766 3.05276,6.82382 0,1.61617 -0.7183,4.13021 -2.93304,5.38723 2.39432,-6.40481 -3.23234,-11.97161 -6.58439,-16.99969 5.08793,-2.27461 6.16538,-5.26751 6.16538,-6.82382 0,-1.55631 -0.53872,-3.95064 -4.78865,-7.24283 -4.24992,-3.29219 -16.64054,-13.46806 -21.30947,-18.37643 -4.66893,-4.90836 -5.20765,-8.91885 -5.20765,-12.74976 0,-3.83092 1.25702,-6.88368 1.79574,-8.26042 0.53872,-1.37673 1.49645,-1.1373 1.07745,-0.23943 -0.41901,0.89787 -1.49645,1.8556 -1.49645,8.32027 0,6.46467 4.30978,9.87658 5.26751,10.65474 0.95772,0.77815 2.21474,0.83801 2.57389,-1.01759 0.35915,-1.8556 -0.11971,-8.61956 0.59858,-14.24622 1.25702,-8.43999 5.48432,-16.06181 7.96113,-20.351742 2.47678,-4.28995 2.39432,-2.45418 2.39432,-8.859 0,-6.40481 3.56155,-11.10367 5.17772,-14.57544 1.61617,-3.47176 1.58624,-4.51928 1.88553,-6.19531 0.29929,-1.67602 1.19716,-0.23943 2.48411,1.4366 1.28695,1.67602 4.93829,8.70935 9.69701,8.70935 4.75871,0 5.7763,-2.18482 7.75162,-3.92071 1.97531,-1.73588 7.871332,-5.53687 10.744522,-6.64424 2.87319,-1.10738 3.80099,-2.33447 3.80099,-2.93305 0,-0.59858 -0.35915,-1.37673 -1.4366,-1.37673 -1.07744,0 -4.81857,2.45418 -7.69176,3.74113 -2.873182,1.28694 -8.769202,4.01049 -12.061402,4.01049 -3.84915,0 -7.09318,-3.35206 -7.81148,-4.27986 -0.71829,-0.9278 0.68837,-0.29929 6.19531,-0.29929 5.50695,0 7.18297,-0.9278 9.75687,-2.18482 2.5739,-1.25702 6.255172,-2.51403 9.936442,-3.89077 3.68127,-1.37674 4.16013,-2.24468 4.16013,-2.72354 0,-0.47887 0,-1.46652 -1.25701,-1.46652 -1.25702,0 -1.52639,1.19716 -2.00525,1.82567 -0.47886,0.62851 -7.063252,2.87318 -9.278002,3.62141 -2.21475,0.74823 -7.96112,2.66368 -12.60012,2.66368 -4.639,0 -6.25517,-2.30453 -6.88368,-3.41191 -0.62851,-1.10737 -1.52638,-1.82567 -2.39432,-2.21474 -0.86795,-0.38908 -2.03518,-1.19717 -2.03518,-2.39433 0,-1.19716 0.80808,-2.72354 2.03518,-3.83091 1.22709,-1.10738 3.53162,-2.96298 5.20765,-4.369636 1.67602,-1.40667 3.14255,-1.82567 3.14255,-4.93829 0,-3.95064 -2.96298,-6.25517 -4.07035,-6.25517 -1.10738,0 -4.48936,-0.0897 -4.48936,4.36964 0,4.45942 2.18482,5.62666 2.72354,5.7763 0.53873,0.14965 0.80809,0.23943 0.59858,0.80808 -0.2095,0.56866 -0.65843,1.286946 -1.22709,1.885526 -0.56865,0.59863 -0.74822,0.35915 -1.40666,-0.0897 -1.8556,-1.586226 -2.33446,-7.123106 -2.33446,-8.619556 0,-1.49645 -0.35915,-9.78679 6.46467,-9.72693 6.82382,0.0598 6.07559,10.44523 6.07559,11.79204 0,1.3468 0.56865,1.70595 1.28695,1.82567 0.7183,0.11971 1.91546,-0.11972 3.14255,0.0599 1.22709,0.17957 4.04602,0.68784 4.54921,0.59858 0,0 -1.03548,-3.21122 0.14965,-8.29035 1.03699,-4.44424 2.97804,-6.9614 7.871332,-7.06325 z m 0.65844,8.1407 c 0.0966,-0.0147 0.21698,0 0.32922,0 1.78078,0 3.21476,1.37744 3.59148,2.7834 0.37674,1.40597 0.0748,2.72354 -0.71829,2.72354 -0.79313,0 -0.40405,-1.36177 -1.01759,-2.42425 -0.61355,-1.06248 -1.19716,-1.78077 -2.21475,-2.18482 -0.89039,-0.35353 -0.64646,-0.79496 0.0299,-0.89787 z m -23.853442,0.53872 c 1.41793,0.40211 2.03517,4.04582 2.03517,4.99815 0,0.95234 -0.86794,0.74009 -0.86794,0.35915 -0.25396,-1.56606 -0.73883,-2.75949 -1.07744,-3.35205 -0.33861,-0.59256 -0.80809,-0.47098 -0.80809,-0.95773 0,-0.48676 -0.0224,-1.04752 0.7183,-1.04752 z m -36.60321,96.580998 c 2.75347,0 5.02808,2.57389 8.38013,6.04566 3.35205,3.47177 13.16878,18.49614 17.4187,25.02067 4.24992,6.52453 5.92595,10.95403 4.19006,16.93984 -1.73588,5.9858 -5.50694,7.30268 -9.63715,7.30268 -4.1302,0 -19.21444,-4.24992 -22.74606,-5.08793 -3.53163,-0.83802 -15.68864,-3.84489 -19.30423,-4.90837 -3.61559,-1.06347 -4.19006,-1.51196 -4.19006,-2.42425 0,-2.52844 4.27985,-4.44138 4.27985,-10.80438 0,-3.89077 -3.77106,-10.05615 -3.77106,-12.21104 0,-2.15489 2.03517,-3.17248 5.14779,-2.63376 3.11262,0.53872 8.43999,0.47887 10.05616,-0.89787 1.61617,-1.37674 3.7112,-4.72879 3.7112,-8.73928 0,-4.01049 2.09503,-7.60197 6.46467,-7.60197 z m 88.889232,4.54921 c 0.95773,4.60907 4.90836,10.95403 10.89417,10.95403 5.98581,0 11.49275,-5.50695 15.44338,-9.57729 3.35209,-1.13731 3.88495,2.20556 3.44184,7.27275 0,1.89471 -0.26936,6.25517 1.97532,9.81672 2.24468,3.56156 4.87843,3.83092 6.91361,4.30979 2.03517,0.47886 6.46467,1.76581 6.46467,4.81857 -1.37674,5.08794 -5.80624,6.2851 -15.80253,9.45757 -9.9963,3.17248 -16.52083,13.46807 -24.30238,13.46807 -7.78155,0 -10.23573,-6.88368 -10.23573,-10.05616 0,-3.17247 1.19716,-8.67942 1.25702,-11.07374 0.0599,-2.39432 0.17957,-4.4295 -1.07744,-11.49275 -1.25702,-7.06325 -1.03256,-9.11338 -0.80809,-12.39062 0.49383,-4.8036 2.96298,-5.50694 5.83616,-5.50694 z"
     id="path4618" />
</svg>
