<?xml version="1.0" encoding="UTF-8" standalone="no"?>
<!-- Created with Inkscape (http://www.inkscape.org/) -->

<svg
   xmlns:dc="http://purl.org/dc/elements/1.1/"
   xmlns:cc="http://creativecommons.org/ns#"
   xmlns:rdf="http://www.w3.org/1999/02/22-rdf-syntax-ns#"
   xmlns:svg="http://www.w3.org/2000/svg"
   xmlns="http://www.w3.org/2000/svg"
   xmlns:xlink="http://www.w3.org/1999/xlink"
   xmlns:sodipodi="http://sodipodi.sourceforge.net/DTD/sodipodi-0.dtd"
   xmlns:inkscape="http://www.inkscape.org/namespaces/inkscape"
   id="svg2"
   version="1.1"
   inkscape:version="0.47 r22583"
   width="196"
   height="196"
   sodipodi:docname="trophies.svg"
   inkscape:export-filename="/home/nevon/Desktop/glasses.png"
   inkscape:export-xdpi="90"
   inkscape:export-ydpi="90">
  <metadata
     id="metadata8">
    <rdf:RDF>
      <cc:Work
         rdf:about="">
        <dc:format>image/svg+xml</dc:format>
        <dc:type
           rdf:resource="http://purl.org/dc/dcmitype/StillImage" />
        <dc:title></dc:title>
      </cc:Work>
    </rdf:RDF>
  </metadata>
  <defs
     id="defs6">
    <linearGradient
       id="linearGradient3732">
      <stop
         style="stop-color:#cecece;stop-opacity:1;"
         offset="0"
         id="stop3734" />
      <stop
         style="stop-color:#cecece;stop-opacity:0;"
         offset="1"
         id="stop3736" />
    </linearGradient>
    <linearGradient
       id="linearGradient3635">
      <stop
         style="stop-color:#ababab;stop-opacity:1;"
         offset="0"
         id="stop3637" />
      <stop
         style="stop-color:#dcdcdc;stop-opacity:1;"
         offset="1"
         id="stop3639" />
    </linearGradient>
    <linearGradient
       id="linearGradient3627">
      <stop
         style="stop-color:#9c9c9c;stop-opacity:1;"
         offset="0"
         id="stop3629" />
      <stop
         style="stop-color:#ededed;stop-opacity:1;"
         offset="1"
         id="stop3631" />
    </linearGradient>
    <linearGradient
       id="linearGradient3617">
      <stop
         style="stop-color:#742651;stop-opacity:1;"
         offset="0"
         id="stop3619" />
      <stop
         style="stop-color:#4e1f41;stop-opacity:1;"
         offset="1"
         id="stop3621" />
    </linearGradient>
    <inkscape:perspective
       sodipodi:type="inkscape:persp3d"
       inkscape:vp_x="0 : 0.5 : 1"
       inkscape:vp_y="0 : 1000 : 0"
       inkscape:vp_z="1 : 0.5 : 1"
       inkscape:persp3d-origin="0.5 : 0.33333333 : 1"
       id="perspective10" />
    <inkscape:perspective
       id="perspective2826"
       inkscape:persp3d-origin="0.5 : 0.33333333 : 1"
       inkscape:vp_z="1 : 0.5 : 1"
       inkscape:vp_y="0 : 1000 : 0"
       inkscape:vp_x="0 : 0.5 : 1"
       sodipodi:type="inkscape:persp3d" />
    <linearGradient
       inkscape:collect="always"
       xlink:href="#linearGradient3627"
       id="linearGradient3633"
       x1="51.972672"
       y1="160.32266"
       x2="114.2979"
       y2="35.020603"
       gradientUnits="userSpaceOnUse"
       gradientTransform="translate(-348,0)" />
    <linearGradient
       inkscape:collect="always"
       xlink:href="#linearGradient3635"
       id="linearGradient3641"
       x1="51.972672"
       y1="160.32266"
       x2="128.08754"
       y2="34.020603"
       gradientUnits="userSpaceOnUse"
       gradientTransform="translate(-348,0)" />
    <linearGradient
       inkscape:collect="always"
       xlink:href="#linearGradient3627"
       id="linearGradient3649"
       x1="58.625229"
       y1="152.50357"
       x2="129.93114"
       y2="31.503578"
       gradientUnits="userSpaceOnUse"
       gradientTransform="translate(-346,2)" />
    <linearGradient
       inkscape:collect="always"
       xlink:href="#linearGradient3627"
       id="linearGradient3672"
       gradientUnits="userSpaceOnUse"
       gradientTransform="matrix(1.5258178,0,0,1.5258178,-891.26198,-150.18093)"
       x1="571.41974"
       y1="-5.3400002"
       x2="545"
       y2="-48.169998" />
    <linearGradient
       inkscape:collect="always"
       xlink:href="#linearGradient3627"
       id="linearGradient3931"
       x1="128.37964"
       y1="174.55789"
       x2="68.31778"
       y2="35.25"
       gradientUnits="userSpaceOnUse" />
    <linearGradient
       inkscape:collect="always"
       xlink:href="#linearGradient3627"
       id="linearGradient3975"
       gradientUnits="userSpaceOnUse"
       x1="128.37964"
       y1="174.55789"
       x2="68.31778"
       y2="35.25" />
    <linearGradient
       inkscape:collect="always"
       xlink:href="#linearGradient3627"
       id="linearGradient3977"
       gradientUnits="userSpaceOnUse"
       x1="128.37964"
       y1="174.55789"
       x2="68.31778"
       y2="35.25" />
    <linearGradient
       inkscape:collect="always"
       xlink:href="#linearGradient3627"
       id="linearGradient3979"
       gradientUnits="userSpaceOnUse"
       x1="128.37964"
       y1="174.55789"
       x2="68.31778"
       y2="35.25" />
    <linearGradient
       inkscape:collect="always"
       xlink:href="#linearGradient3627"
       id="linearGradient3981"
       gradientUnits="userSpaceOnUse"
       x1="128.37964"
       y1="174.55789"
       x2="68.31778"
       y2="35.25" />
    <linearGradient
       inkscape:collect="always"
       xlink:href="#linearGradient3627"
       id="linearGradient3983"
       gradientUnits="userSpaceOnUse"
       x1="128.37964"
       y1="174.55789"
       x2="68.31778"
       y2="35.25" />
    <linearGradient
       inkscape:collect="always"
       xlink:href="#linearGradient3627"
       id="linearGradient3985"
       gradientUnits="userSpaceOnUse"
       x1="128.37964"
       y1="174.55789"
       x2="68.31778"
       y2="35.25" />
    <linearGradient
       inkscape:collect="always"
       xlink:href="#linearGradient3627"
       id="linearGradient3987"
       gradientUnits="userSpaceOnUse"
       x1="128.37964"
       y1="174.55789"
       x2="68.31778"
       y2="35.25" />
    <linearGradient
       inkscape:collect="always"
       xlink:href="#linearGradient3627"
       id="linearGradient3989"
       gradientUnits="userSpaceOnUse"
       x1="128.37964"
       y1="174.55789"
       x2="68.31778"
       y2="35.25" />
    <linearGradient
       inkscape:collect="always"
       xlink:href="#linearGradient3627"
       id="linearGradient3991"
       gradientUnits="userSpaceOnUse"
       x1="128.37964"
       y1="174.55789"
       x2="68.31778"
       y2="35.25" />
    <linearGradient
       inkscape:collect="always"
       xlink:href="#linearGradient3627"
       id="linearGradient3993"
       gradientUnits="userSpaceOnUse"
       x1="128.37964"
       y1="174.55789"
       x2="68.31778"
       y2="35.25" />
    <linearGradient
       inkscape:collect="always"
       xlink:href="#linearGradient3627"
       id="linearGradient3995"
       gradientUnits="userSpaceOnUse"
       x1="128.37964"
       y1="174.55789"
       x2="68.31778"
       y2="35.25" />
    <linearGradient
       inkscape:collect="always"
       xlink:href="#linearGradient3627"
       id="linearGradient3997"
       gradientUnits="userSpaceOnUse"
       x1="128.37964"
       y1="174.55789"
       x2="68.31778"
       y2="35.25" />
    <linearGradient
       inkscape:collect="always"
       xlink:href="#linearGradient3627"
       id="linearGradient3999"
       gradientUnits="userSpaceOnUse"
       x1="128.37964"
       y1="174.55789"
       x2="68.31778"
       y2="35.25" />
    <linearGradient
       inkscape:collect="always"
       xlink:href="#linearGradient3627"
       id="linearGradient4001"
       gradientUnits="userSpaceOnUse"
       x1="128.37964"
       y1="174.55789"
       x2="68.31778"
       y2="35.25" />
    <linearGradient
       inkscape:collect="always"
       xlink:href="#linearGradient3627"
       id="linearGradient4003"
       gradientUnits="userSpaceOnUse"
       x1="128.37964"
       y1="174.55789"
       x2="68.31778"
       y2="35.25" />
    <linearGradient
       inkscape:collect="always"
       xlink:href="#linearGradient3627"
       id="linearGradient4005"
       gradientUnits="userSpaceOnUse"
       x1="128.37964"
       y1="174.55789"
       x2="68.31778"
       y2="35.25" />
    <linearGradient
       inkscape:collect="always"
       xlink:href="#linearGradient3627"
       id="linearGradient4007"
       gradientUnits="userSpaceOnUse"
       x1="128.37964"
       y1="174.55789"
       x2="68.31778"
       y2="35.25" />
    <linearGradient
       inkscape:collect="always"
       xlink:href="#linearGradient3627"
       id="linearGradient4009"
       gradientUnits="userSpaceOnUse"
       x1="128.37964"
       y1="174.55789"
       x2="68.31778"
       y2="35.25" />
    <linearGradient
       inkscape:collect="always"
       xlink:href="#linearGradient3627"
       id="linearGradient4011"
       gradientUnits="userSpaceOnUse"
       x1="128.37964"
       y1="174.55789"
       x2="68.31778"
       y2="35.25" />
    <linearGradient
       inkscape:collect="always"
       xlink:href="#linearGradient3627"
       id="linearGradient4013"
       gradientUnits="userSpaceOnUse"
       x1="128.37964"
       y1="174.55789"
       x2="68.31778"
       y2="35.25" />
    <linearGradient
       inkscape:collect="always"
       xlink:href="#linearGradient3627"
       id="linearGradient4015"
       gradientUnits="userSpaceOnUse"
       x1="128.37964"
       y1="174.55789"
       x2="68.31778"
       y2="35.25" />
    <linearGradient
       inkscape:collect="always"
       xlink:href="#linearGradient3627"
       id="linearGradient4095"
       x1="111"
       y1="168.85727"
       x2="60"
       y2="27.142735"
       gradientUnits="userSpaceOnUse"
       gradientTransform="translate(161.22035,-514.77374)" />
    <linearGradient
       inkscape:collect="always"
       xlink:href="#linearGradient3627"
       id="linearGradient4118"
       gradientUnits="userSpaceOnUse"
       x1="128.37964"
       y1="174.55789"
       x2="68.31778"
       y2="35.25" />
    <linearGradient
       inkscape:collect="always"
       xlink:href="#linearGradient3627"
       id="linearGradient4120"
       gradientUnits="userSpaceOnUse"
       x1="128.37964"
       y1="174.55789"
       x2="68.31778"
       y2="35.25" />
    <linearGradient
       inkscape:collect="always"
       xlink:href="#linearGradient3627"
       id="linearGradient4122"
       gradientUnits="userSpaceOnUse"
       x1="128.37964"
       y1="174.55789"
       x2="68.31778"
       y2="35.25" />
    <linearGradient
       inkscape:collect="always"
       xlink:href="#linearGradient3627"
       id="linearGradient3692"
       x1="56.726055"
       y1="175.34409"
       x2="123.63694"
       y2="15.682052"
       gradientUnits="userSpaceOnUse" />
    <linearGradient
       inkscape:collect="always"
       xlink:href="#linearGradient3627"
       id="linearGradient3844"
       gradientUnits="userSpaceOnUse"
       x1="56.726055"
       y1="175.34409"
       x2="123.63694"
       y2="15.682052" />
    <linearGradient
       inkscape:collect="always"
       xlink:href="#linearGradient3627"
       id="linearGradient3846"
       gradientUnits="userSpaceOnUse"
       x1="56.726055"
       y1="175.34409"
       x2="123.63694"
       y2="15.682052" />
    <linearGradient
       inkscape:collect="always"
       xlink:href="#linearGradient3627"
       id="linearGradient3848"
       gradientUnits="userSpaceOnUse"
       x1="56.726055"
       y1="175.34409"
       x2="123.63694"
       y2="15.682052" />
    <linearGradient
       inkscape:collect="always"
       xlink:href="#linearGradient3627"
       id="linearGradient3850"
       gradientUnits="userSpaceOnUse"
       x1="56.726055"
       y1="175.34409"
       x2="123.63694"
       y2="15.682052" />
    <linearGradient
       inkscape:collect="always"
       xlink:href="#linearGradient3627"
       id="linearGradient3852"
       gradientUnits="userSpaceOnUse"
       x1="56.726055"
       y1="175.34409"
       x2="123.63694"
       y2="15.682052" />
    <linearGradient
       inkscape:collect="always"
       xlink:href="#linearGradient3627"
       id="linearGradient3881"
       x1="122.66652"
       y1="130"
       x2="98"
       y2="59"
       gradientUnits="userSpaceOnUse" />
    <linearGradient
       inkscape:collect="always"
       xlink:href="#linearGradient3627"
       id="linearGradient3889"
       gradientUnits="userSpaceOnUse"
       x1="122.66652"
       y1="130"
       x2="98"
       y2="59" />
    <linearGradient
       inkscape:collect="always"
       xlink:href="#linearGradient3627"
       id="linearGradient3891"
       gradientUnits="userSpaceOnUse"
       x1="122.66652"
       y1="130"
       x2="98"
       y2="59" />
    <linearGradient
       inkscape:collect="always"
       xlink:href="#linearGradient3627"
       id="linearGradient4093"
       x1="62.215622"
       y1="45.43903"
       x2="69.308464"
       y2="127.21875"
       gradientUnits="userSpaceOnUse" />
    <linearGradient
       inkscape:collect="always"
       xlink:href="#linearGradient3627"
       id="linearGradient4097"
       gradientUnits="userSpaceOnUse"
       x1="66.375"
       y1="45.43903"
       x2="106.96027"
       y2="140.32889" />
    <linearGradient
       inkscape:collect="always"
       xlink:href="#linearGradient3627"
       id="linearGradient4099"
       gradientUnits="userSpaceOnUse"
       x1="66.375"
       y1="45.43903"
       x2="106.96027"
       y2="140.32889" />
    <linearGradient
       inkscape:collect="always"
       xlink:href="#linearGradient3627"
       id="linearGradient4101"
       gradientUnits="userSpaceOnUse"
       x1="66.375"
       y1="45.43903"
       x2="106.96027"
       y2="140.32889" />
    <linearGradient
       inkscape:collect="always"
       xlink:href="#linearGradient3627"
       id="linearGradient4103"
       gradientUnits="userSpaceOnUse"
       x1="66.375"
       y1="45.43903"
       x2="106.96027"
       y2="140.32889" />
    <linearGradient
       inkscape:collect="always"
       xlink:href="#linearGradient3627"
       id="linearGradient4105"
       gradientUnits="userSpaceOnUse"
       x1="66.375"
       y1="45.43903"
       x2="106.96027"
       y2="140.32889" />
    <linearGradient
       inkscape:collect="always"
       xlink:href="#linearGradient3627"
       id="linearGradient4107"
       gradientUnits="userSpaceOnUse"
       x1="66.375"
       y1="45.43903"
       x2="106.96027"
       y2="140.32889" />
    <linearGradient
       inkscape:collect="always"
       xlink:href="#linearGradient3627"
       id="linearGradient4109"
       gradientUnits="userSpaceOnUse"
       x1="66.375"
       y1="45.43903"
       x2="106.96027"
       y2="140.32889" />
    <linearGradient
       inkscape:collect="always"
       xlink:href="#linearGradient3627"
       id="linearGradient4111"
       gradientUnits="userSpaceOnUse"
       x1="66.375"
       y1="45.43903"
       x2="106.96027"
       y2="140.32889" />
  </defs>
  <sodipodi:namedview
     pagecolor="#ffffff"
     bordercolor="#666666"
     borderopacity="1"
     objecttolerance="10"
     gridtolerance="10"
     guidetolerance="10"
     inkscape:pageopacity="0"
     inkscape:pageshadow="2"
     inkscape:window-width="1440"
     inkscape:window-height="829"
     id="namedview4"
     showgrid="false"
     inkscape:zoom="0.25"
     inkscape:cx="444.16519"
     inkscape:cy="42.626368"
     inkscape:window-x="0"
     inkscape:window-y="24"
     inkscape:window-maximized="1"
     inkscape:current-layer="svg2"
     showguides="true"
     inkscape:guide-bbox="true" />
  <g
     id="g4077"
     style="fill:url(#linearGradient4093);fill-opacity:1"
     transform="matrix(1.2469047,0,0,1.2469047,-21.911876,-9.6438989)">
    <g
       id="g4066"
       style="fill:url(#linearGradient4107);fill-opacity:1">
      <path
         style="fill:url(#linearGradient4097);fill-opacity:1;stroke:none"
         d="m 38.375,87.09375 c -11.08,0 -20,4.46 -20,10 l 0,20.125 c 0,5.54 8.92,10 20,10 l 27.90625,0 c 11.08,0 20,-4.46 20,-10 l 0,-20.125 c 0,-5.54 -8.92,-10 -20,-10 l -27.90625,0 z m 2.96875,4.25 21.96875,0 c 8.736154,0 15.78125,3.506923 15.78125,7.875 l 0,15.875 c 0,4.36808 -7.045096,7.875 -15.78125,7.875 l -21.96875,0 c -8.736154,0 -15.78125,-3.50692 -15.78125,-7.875 l 0,-15.875 c 0,-4.368077 7.045096,-7.875 15.78125,-7.875 z"
         id="rect4040" />
      <path
         style="fill:url(#linearGradient4099);fill-opacity:1;stroke:none"
         d="m 95.71875,90.90625 c -3.376862,0.04701 -6.647295,0.588172 -9.75,1.71875 1.082011,1.110006 1.646032,3.086125 1.71875,3.34375 6.327394,-2.264954 12.67345,-1.537634 16.96875,-0.1875 0.48838,-1.29404 0.97281,-2.400151 2,-3.5625 -3.68386,-0.871294 -7.367593,-1.362191 -10.9375,-1.3125 z"
         id="path4046"
         sodipodi:nodetypes="cccccc" />
      <path
         id="path4051"
         d="m 126.05402,87.09375 c -11.08,0 -20,4.46 -20,10 l 0,20.125 c 0,5.54 8.92,10 20,10 l 27.90625,0 c 11.08,0 20,-4.46 20,-10 l 0,-20.125 c 0,-5.54 -8.92,-10 -20,-10 l -27.90625,0 z m 2.96875,4.25 21.96875,0 c 8.73615,0 15.78125,3.506923 15.78125,7.875 l 0,15.875 c 0,4.36808 -7.0451,7.875 -15.78125,7.875 l -21.96875,0 c -8.73615,0 -15.78125,-3.50692 -15.78125,-7.875 l 0,-15.875 c 0,-4.368077 7.0451,-7.875 15.78125,-7.875 z"
         style="fill:url(#linearGradient4101);fill-opacity:1;stroke:none" />
      <path
         style="fill:url(#linearGradient4103);fill-opacity:1;stroke:none"
         d="m 40.65864,84.984235 c 0,0 -6.187184,-0.707107 -14.318912,1.767767 10.606601,-11.313708 33.234018,-32.880465 39.244426,-38.890873 6.010408,-6.010408 5.126524,0.883884 5.303301,2.298097 0,7.954951 0,8.662058 -1.59099,8.662058 -1.590991,0 -0.707107,-8.308504 -0.707107,-8.308504"
         id="path4062" />
      <path
         id="path4064"
         d="m 152.56854,84.984235 c 0,0 6.18719,-0.707107 14.31891,1.767767 -10.6066,-11.313708 -33.23401,-32.880465 -39.24442,-38.890873 -6.01041,-6.010408 -5.12653,0.883884 -5.3033,2.298097 0,7.954951 0,8.662058 1.59099,8.662058 1.59099,0 0.7071,-8.308504 0.7071,-8.308504"
         style="fill:url(#linearGradient4105);fill-opacity:1;stroke:none" />
    </g>
    <path
       id="path4073"
       d="m 57.25,94 c 0,0 -6,-0.25 -15.75,-0.25 -9.75,0 -12.25,3.75 -12.25,9.75 0,1.125 0.75,1.125 1.75,1.125 1,0 1,-0.80207 1,-1.25 0,-3.629911 4.592776,-7.607386 8.216698,-7.607386 3.623923,0 16.351845,-0.530331 16.882175,-0.530331 0.53033,0 0.795495,-1.325825 0.151127,-1.237283 z"
       style="fill:url(#linearGradient4109);fill-opacity:1;stroke:none" />
    <path
       style="fill:url(#linearGradient4111);fill-opacity:1;stroke:none"
       d="m 146.25,94 c 0,0 -6,-0.25 -15.75,-0.25 -9.75,0 -12.25,3.75 -12.25,9.75 0,1.125 0.75,1.125 1.75,1.125 1,0 1,-0.80207 1,-1.25 0,-3.629911 4.59278,-7.607386 8.2167,-7.607386 3.62392,0 16.35184,-0.530331 16.88217,-0.530331 0.53033,0 0.7955,-1.325825 0.15113,-1.237283 z"
       id="path4075" />
  </g>
</svg>
